<?xml version="1.0" encoding="utf-8"?>
<!-- Generator: Adobe Illustrator 24.1.0, SVG Export Plug-In . SVG Version: 6.00 Build 0)  -->
<svg version="1.1" id="Layer_1" xmlns="http://www.w3.org/2000/svg" xmlns:xlink="http://www.w3.org/1999/xlink" x="0px" y="0px"
	 viewBox="0 0 1000 1000" style="enable-background:new 0 0 1000 1000;" xml:space="preserve">
<style type="text/css">
	.st0{fill:#FF7848;}
	.st1{fill:#F94F45;}
	.st2{fill:#FFCD3D;}
	.st3{fill:#60D956;}
	.st4{fill:#20B6FF;}
	.st5{fill:#AD6DDD;}
</style>
<g>
	<path class="st0" d="M1000,0h-17c5.7,3.3,11.4,6.6,17,10V0z"/>
	<path class="st1" d="M10.5,0H0v8.9v143.2C55.5,92.1,120,40.7,191.4,0H10.5z"/>
	<path class="st0" d="M0,152.1v174.5C122.7,131.6,339.8,2,587.2,2C741.9,2,884.7,52.7,1000,138.3V10c-5.6-3.4-11.3-6.7-17-10H191.4
		C120,40.7,55.5,92.1,0,152.1z"/>
	<path class="st2" d="M85.9,999.9C31.8,911.1,0.6,806.8,0.6,695.2c0-323.9,262.6-586.5,586.6-586.5c161,0,306.8,64.8,412.8,169.8
		V138.3C884.7,52.7,741.9,2,587.2,2C339.8,2,122.7,131.6,0,326.6v673.3H85.9z"/>
	<path class="st3" d="M0.6,695.2c0,111.6,31.2,215.9,85.3,304.7h130.5c-68.2-82.9-109.1-189-109.1-304.7
		c0-265,214.9-479.9,479.9-479.9c175.6,0,329.1,94.3,412.8,235V278.5c-106-105-251.8-169.8-412.8-169.8
		C263.2,108.7,0.6,371.3,0.6,695.2z"/>
	<path class="st3" d="M1000,999.9v-59.8c-12.5,21-26.5,41-42,59.8H1000z"/>
	<path class="st4" d="M213.9,695.2C213.9,489.1,381,322,587.2,322s373.3,167.1,373.3,373.3c0,125.8-62.3,237.1-157.6,304.7H958
		c15.5-18.8,29.5-38.8,42-59.8V450.3c-83.7-140.7-237.2-235-412.8-235c-265.1,0-479.9,214.9-479.9,479.9
		c0,115.7,40.9,221.8,109.1,304.7h155.2C276.2,932.3,213.9,821,213.9,695.2z"/>
	<path class="st5" d="M960.5,695.2c0-206.1-167.1-373.3-373.3-373.3S213.9,489.1,213.9,695.2c0,125.8,62.3,237.1,157.6,304.7h431.3
		C898.2,932.3,960.5,821,960.5,695.2z"/>
</g>
</svg>
