<?xml version="1.0" standalone="no"?>
<!DOCTYPE svg PUBLIC "-//W3C//DTD SVG 20010904//EN"
 "http://www.w3.org/TR/2001/REC-SVG-20010904/DTD/svg10.dtd">
<svg version="1.0" xmlns="http://www.w3.org/2000/svg"
 width="3339.000000pt" height="3339.000000pt" viewBox="0 0 3339.000000 3339.000000"
 preserveAspectRatio="xMidYMid meet">
<metadata>
Created by potrace 1.11, written by Peter Selinger 2001-2013
</metadata>
<g transform="translate(0.000000,3339.000000) scale(0.100000,-0.100000)"
fill="#000000" stroke="none">
<path d="M4049 33366 c-2 -2 -49 -7 -104 -10 -55 -3 -109 -8 -120 -10 -11 -2
-47 -7 -80 -10 -65 -7 -185 -28 -305 -52 -41 -9 -86 -18 -100 -20 -13 -3 -67
-16 -120 -30 -52 -14 -102 -27 -111 -29 -58 -12 -370 -124 -490 -175 -646
-277 -1175 -674 -1653 -1240 -27 -32 -180 -238 -230 -308 -126 -181 -308 -519
-409 -763 -79 -189 -185 -517 -213 -654 -3 -18 -26 -123 -29 -135 -1 -4 -12
-66 -20 -110 -1 -8 -6 -35 -10 -60 -4 -25 -9 -54 -11 -65 -2 -11 -6 -47 -10
-80 -3 -33 -7 -65 -9 -71 -12 -39 -20 -235 -18 -464 2 -146 5 -875 7 -1620 3
-1010 1 -1359 -8 -1369 -8 -12 -8 -13 2 -7 9 6 12 1 10 -16 -2 -12 -7 -29 -12
-37 -6 -10 -5 -12 3 -7 14 9 11 -30 -3 -53 -6 -10 -5 -12 3 -7 14 9 11 -30 -3
-53 -6 -10 -5 -12 3 -7 14 9 11 -30 -3 -53 -6 -10 -5 -12 3 -7 14 9 11 -30 -3
-53 -6 -10 -5 -12 3 -7 14 9 11 -30 -3 -53 -6 -10 -5 -12 3 -7 14 9 11 -30 -3
-53 -6 -10 -5 -12 3 -7 14 9 11 -30 -3 -53 -6 -10 -5 -12 3 -7 14 9 11 -30 -3
-53 -6 -10 -5 -12 3 -7 14 9 11 -30 -3 -53 -6 -10 -5 -12 3 -7 14 9 11 -30 -3
-53 -6 -10 -5 -12 3 -7 14 9 11 -30 -3 -53 -6 -10 -5 -12 3 -7 14 9 11 -30 -3
-53 -6 -10 -5 -12 3 -7 14 9 11 -30 -3 -53 -6 -10 -5 -12 3 -7 14 9 11 -30 -3
-53 -6 -10 -5 -12 3 -7 14 9 11 -30 -3 -53 -6 -10 -5 -12 3 -7 14 9 11 -30 -3
-53 -6 -10 -5 -12 3 -7 14 9 11 -30 -3 -53 -6 -10 -5 -12 3 -7 14 9 11 -30 -3
-53 -6 -10 -5 -12 3 -7 14 9 11 -30 -3 -53 -6 -10 -5 -12 3 -7 14 9 11 -30 -3
-53 -6 -10 -5 -12 3 -7 14 9 11 -30 -3 -53 -6 -10 -5 -12 3 -7 14 9 11 -30 -3
-53 -6 -10 -5 -12 3 -7 14 9 11 -30 -3 -53 -6 -10 -5 -12 3 -7 14 9 11 -30 -3
-53 -6 -10 -5 -12 3 -7 14 9 11 -30 -3 -53 -6 -10 -5 -12 3 -7 14 9 11 -30 -3
-53 -6 -10 -5 -12 3 -7 14 9 11 -30 -3 -53 -6 -10 -5 -12 3 -7 14 9 11 -30 -3
-53 -6 -10 -5 -12 3 -7 14 9 11 -30 -3 -53 -6 -10 -5 -12 3 -7 14 9 11 -30 -3
-53 -6 -10 -5 -12 3 -7 14 9 11 -30 -3 -53 -6 -10 -5 -12 3 -7 14 9 11 -30 -3
-53 -6 -10 -5 -12 2 -7 8 5 12 -1 12 -14 0 -14 -4 -19 -12 -14 -11 6 -11 4 0
-7 16 -18 16 -63 0 -53 -10 6 -10 4 -1 -7 17 -18 17 -63 1 -53 -10 6 -10 4 0
-7 16 -18 16 -63 0 -53 -10 6 -10 4 -1 -7 17 -18 17 -63 1 -53 -10 6 -10 4 -1
-7 17 -18 17 -63 1 -53 -10 6 -10 4 -1 -7 18 -18 18 -123 1 -113 -10 6 -10 4
0 -7 16 -18 16 -63 0 -53 -10 6 -10 4 0 -7 16 -18 16 -63 0 -53 -11 6 -11 4 0
-7 17 -18 17 -123 0 -113 -10 6 -10 4 0 -7 16 -18 16 -63 0 -53 -10 6 -10 4
-1 -7 18 -18 18 -123 1 -113 -11 6 -11 4 0 -7 17 -18 17 -123 0 -113 -10 6
-10 4 -1 -7 18 -18 18 -123 1 -113 -10 6 -10 4 0 -7 17 -18 17 -123 0 -113
-10 6 -11 4 0 -7 6 -7 12 -37 12 -67 0 -40 -3 -51 -12 -46 -10 6 -10 4 0 -7 6
-7 12 -37 12 -67 0 -40 -3 -51 -12 -46 -10 6 -11 4 0 -7 17 -18 17 -123 0
-113 -10 6 -10 5 -1 -7 9 -11 12 -2194 12 -9169 0 -5035 3 -9191 6 -9235 60
-795 320 -1527 772 -2173 525 -750 1292 -1322 2162 -1612 467 -156 933 -225
1463 -218 148 1 268 6 268 11 0 4 17 7 38 7 52 0 244 26 375 50 59 12 112 18
116 15 5 -3 11 -2 13 3 1 4 63 22 137 40 151 38 401 116 511 162 41 17 80 28
88 25 7 -2 11 -1 8 3 -3 5 25 21 62 37 275 117 631 324 867 504 60 45 210 167
231 186 58 54 138 120 145 117 5 -1 8 2 7 7 -2 5 49 62 112 127 117 121 178
188 238 263 19 22 39 38 44 34 7 -3 8 -1 4 5 -6 9 36 75 64 102 11 10 108 146
145 202 21 32 42 55 48 51 6 -4 7 -1 2 7 -5 8 -1 18 10 27 11 7 16 13 13 13
-4 0 26 55 65 122 40 68 81 140 90 160 13 27 22 36 35 32 13 -5 14 -4 4 4 -11
7 -7 22 18 73 18 35 36 66 41 67 5 2 7 7 4 11 -2 4 18 58 45 119 59 132 129
317 159 422 12 41 25 82 28 90 3 8 7 20 8 25 2 6 19 75 39 155 44 175 78 379
103 600 17 158 18 473 18 7418 0 3988 1 7252 3 7252 2 0 1122 -1119 2490
-2488 2278 -2278 2577 -2576 2697 -2682 353 -312 786 -575 1245 -758 683 -271
1479 -364 2256 -262 819 108 1596 455 2234 1000 52 44 1248 1234 2658 2643
l2562 2562 0 -7232 c0 -4902 3 -7273 10 -7360 114 -1407 878 -2637 2090 -3368
518 -311 1100 -506 1737 -582 209 -24 729 -25 933 0 1015 122 1896 549 2597
1259 727 736 1153 1676 1232 2718 5 65 10 5464 11 12395 1 6754 3 12397 5
12540 1 143 -1 296 -5 340 -5 44 -11 113 -15 153 -3 40 -8 78 -10 85 -2 7 -6
37 -10 67 -30 279 -175 809 -285 1045 -5 11 -30 67 -55 125 -142 326 -406 741
-644 1013 -95 109 -138 155 -247 263 -533 530 -1205 916 -1924 1103 -162 42
-358 82 -495 101 -44 6 -94 13 -111 15 -108 15 -235 20 -504 20 -323 0 -431
-6 -625 -36 -38 -6 -83 -13 -100 -15 -16 -3 -37 -7 -45 -9 -8 -2 -33 -6 -55
-10 -22 -3 -80 -15 -130 -26 -597 -138 -1147 -393 -1640 -763 -66 -49 -122
-92 -125 -95 -3 -3 -34 -31 -70 -61 -104 -88 -177 -157 -305 -289 -202 -210
-9285 -9291 -9293 -9291 -8 0 -9038 9035 -9297 9301 -88 91 -180 183 -205 205
-399 352 -840 622 -1325 809 -101 39 -339 119 -389 130 -12 3 -66 16 -121 30
-55 14 -116 28 -135 31 -19 3 -38 8 -41 9 -3 2 -28 7 -55 11 -27 3 -51 8 -54
9 -3 2 -26 6 -50 10 -25 3 -70 10 -100 15 -30 5 -89 12 -130 16 -41 3 -84 8
-95 11 -24 6 -640 14 -646 9z"/>
</g>
</svg>
